<svg width="512" height="128" viewBox="0 0 64 16" fill="none" xmlns="http://www.w3.org/2000/svg">
<path d="M0.34 2.74V0.38H11.46V2.74H7.18V15H4.62V2.74H0.34ZM14.2769 3.14C13.4369 3.14 12.7769 2.48 12.7769 1.66C12.7769 0.84 13.4369 0.2 14.2769 0.2C15.0769 0.2 15.7369 0.84 15.7369 1.66C15.7369 2.48 15.0769 3.14 14.2769 3.14ZM13.0569 15V5.12H15.4969V15H13.0569ZM17.4378 10.04C17.4378 6.98 19.4578 4.82 22.3778 4.82C25.0778 4.82 26.9178 6.32 27.1778 8.7H24.7378C24.4578 7.58 23.6378 7 22.4778 7C20.9178 7 19.8778 8.18 19.8778 10.04C19.8778 11.9 20.8378 13.06 22.3978 13.06C23.6178 13.06 24.4778 12.46 24.7378 11.38H27.1978C26.8978 13.68 24.9778 15.26 22.3978 15.26C19.3978 15.26 17.4378 13.18 17.4378 10.04ZM31.4739 15H29.0539V0.12H31.4739V9.26L35.3139 5.12H38.3739L34.6139 9.04L38.2939 15H35.4939L32.9139 10.84L31.4739 12.34V15Z" fill="url(#paint0_linear_2_969)"/>
<path d="M40.1356 15V0.38H45.9556C48.8356 0.38 50.5956 1.88 50.5956 4.32C50.5956 5.94 49.8756 7.1 48.4956 7.68C50.0356 8.18 50.8156 9.34 50.8156 11.04C50.8156 13.54 49.0756 15 46.0556 15H40.1356ZM45.7356 2.64H42.6956V6.62H45.7956C47.1956 6.62 47.9756 5.88 47.9756 4.58C47.9756 3.32 47.1756 2.64 45.7356 2.64ZM45.9556 8.78H42.6956V12.74H45.9556C47.3956 12.74 48.1956 12.04 48.1956 10.72C48.1956 9.48 47.3756 8.78 45.9556 8.78ZM54.023 3.14C53.183 3.14 52.523 2.48 52.523 1.66C52.523 0.84 53.183 0.2 54.023 0.2C54.823 0.2 55.483 0.84 55.483 1.66C55.483 2.48 54.823 3.14 54.023 3.14ZM52.803 15V5.12H55.243V15H52.803ZM61.1239 15H58.6839V7.16H56.7839V5.12H58.6839V2.04H61.1239V5.12H63.0439V7.16H61.1239V15Z" fill="#433C53"/>
<defs>
<linearGradient id="paint0_linear_2_969" x1="-1.36" y1="-7" x2="65.3657" y2="-5.00343" gradientUnits="userSpaceOnUse">
<stop stop-color="#891AFF"/>
<stop offset="1" stop-color="#FF9E52"/>
</linearGradient>
</defs>
</svg>